#!OML:ASF H:\charlestonDancing\Project 1\Capture day 1\Session 1\femaleDancer.ASF
:FULLY-SPECIFIED
:DEGREES
222
root -2.01288 17.5843 5.19589 528.342 -83.7612 -523.625
lowerback 18.9963 -2.30018 6.49758
upperback 5.38336 -2.20833 -1.20699
thorax -5.06785 -1.25768 -4.46878
lowerneck 3.1482 5.62641 5.54682
upperneck 2.74195 7.7236 -7.29712
head 0.871903 3.87975 -3.30262
rclavicle 2.21645e-014 -2.78299e-015
rhumerus -55.7088 -22.3 -45.9894
rradius 89.6154
rwrist -49.7695
rhand -11.0919 -28.4423
rfingers 7.12502
rthumb 14.932 -57.884
lclavicle 2.21645e-014 -2.78299e-015
lhumerus -57.8461 11.9654 56.0277
lradius 47.5038
lwrist -1.72164
lhand -23.4992 13.6227
lfingers 7.12502
lthumb 2.96097 43.5819
rfemur -22.3985 0.601337 25.1122
rtibia 45.8137
rfoot -20.4216 4.3618
rtoes -19.4092
lfemur -36.0548 3.94647 -21.807
ltibia 59.859
lfoot -2.13948 -7.37413
ltoes -29.5773
223
root -2.06007 17.5496 5.22507 533.971 -84.5396 -529.327
lowerback 18.7289 -2.48195 5.85763
upperback 5.33681 -2.58118 -1.37491
thorax -5.01184 -1.43202 -4.20133
lowerneck 3.28094 5.66151 5.79197
upperneck 2.58995 7.7803 -7.43924
head 0.821632 3.91434 -3.40313
rclavicle 2.90226e-014 1.63003e-014
rhumerus -55.7047 -22.4538 -45.5172
rradius 89.1108
rwrist -50.001
rhand -10.8494 -28.2427
rfingers 7.12502
rthumb 15.1656 -57.6669
lclavicle 2.90226e-014 1.63003e-014
lhumerus -54.731 10.7319 58.182
lradius 52.6264
lwrist 0.287898
lhand -24.8564 13.2294
lfingers 7.12502
lthumb 1.65026 43.2027
rfemur -23.869 0.86967 23.9277
rtibia 48.9787
rfoot -19.9798 4.8738
rtoes -22.2656
lfemur -33.9938 3.76194 -23.1252
ltibia 57.105
lfoot -0.885115 -8.89368
ltoes -23.5372
224
root -2.10121 17.4911 5.257 539.768 -85.1396 -535.288
lowerback 18.6191 -2.63738 5.27905
upperback 5.31733 -2.89708 -1.46096
thorax -4.99441 -1.58159 -3.89195
lowerneck 3.28009 5.79372 6.05736
upperneck 2.50027 7.96894 -7.8305
head 0.838174 4.0115 -3.58622
rclavicle -1.42131e-014 1.86858e-014
rhumerus -55.8446 -22.3371 -44.7912
rradius 88.8993
rwrist -50.4152
rhand -10.3887 -28.204
rfingers 7.12502
rthumb 15.6093 -57.5942
lclavicle -1.42131e-014 1.86858e-014
lhumerus -51.6368 9.78537 60.0225
lradius 57.9812
lwrist 2.24876
lhand -25.9463 12.9884
lfingers 7.12502
lthumb 0.597644 42.9673
rfemur -25.7845 1.30267 22.8141
rtibia 52.9288
rfoot -18.3456 5.75498
rtoes -27.4211
lfemur -31.9098 3.59678 -24.2573
ltibia 54.4269
lfoot -4.02693 -9.73162
ltoes -17.0954
225
root -2.12857 17.4211 5.29628 545.836 -85.62 -541.438
lowerback 18.4607 -2.76863 4.86388
upperback 5.37125 -3.15767 -1.53217
thorax -4.86719 -1.70327 -3.67701
lowerneck 3.09011 5.99992 6.65518
upperneck 2.4031 8.26662 -8.62011
head 0.932813 4.16252 -3.96392
rclavicle 2.80286e-014 1.96797e-014
rhumerus -56.0477 -22.107 -44.0034
rradius 89.1058
rwrist -50.9564
rhand -10.0423 -28.2778
rfingers 7.12502
rthumb 15.9429 -57.6416
lclavicle 2.80286e-014 1.96797e-014
lhumerus -48.05 9.07536 61.6673
lradius 63.2967
lwrist 4.06502
lhand -26.7893 13.2816
lfingers 7.12502
lthumb -0.216608 43.2612
rfemur -28.3331 1.73191 21.7494
rtibia 57.5355
rfoot -15.8476 7.07094
rtoes -30.478
lfemur -30.148 3.34279 -25.2424
ltibia 52.1161
lfoot -6.33235 -10.7082
ltoes -11.2679
226
root -2.13328 17.336 5.34219 553.085 -86.0644 -548.634
lowerback 18.2968 -2.92047 4.58093
upperback 5.43197 -3.42437 -1.67183
thorax -4.73766 -1.82917 -3.61097
lowerneck 2.87238 6.29352 7.40892
upperneck 2.24745 8.68122 -9.36202
head 1.03618 4.37373 -4.35644
rclavicle -2.17669e-014 2.18663e-014
rhumerus -55.7921 -22.174 -43.5535
rradius 89.1146
rwrist -51.117
rhand -9.8168 -28.3602
rfingers 7.12502
rthumb 16.1601 -57.7066
lclavicle -2.17669e-014 2.18663e-014
lhumerus -43.9723 8.53237 63.0104
lradius 68.4792
lwrist 4.88624
lhand -26.2695 15.258
lfingers 7.12502
lthumb 0.285406 45.2376
rfemur -31.5395 2.07308 20.6548
rtibia 62.5549
rfoot -12.5552 8.16693
rtoes -34.6115
lfemur -29.0952 2.67188 -26.1198
ltibia 50.4237
lfoot -8.56759 -11.1986
ltoes -7.618
227
root -2.12269 17.2603 5.38251 564.611 -86.2911 -560.195
lowerback 18.3718 -3.05268 3.95895
upperback 5.44285 -3.72151 -1.91064
thorax -4.77714 -1.97356 -3.44129
lowerneck 2.76392 6.72558 7.96224
upperneck 2.12341 9.27436 -9.72173
head 1.12366 4.67489 -4.57433
rclavicle 2.28602e-014 6.36111e-015
rhumerus -55.8169 -21.8529 -43.1188
rradius 89.4543
rwrist -51.5019
rhand -9.73897 -28.5161
rfingers 7.12502
rthumb 16.235 -57.8563
lclavicle 2.28602e-014 6.36111e-015
lhumerus -39.7284 8.13418 64.0513
lradius 73.458
lwrist 4.36444
lhand -27.5858 13.7509
lfingers 7.12502
lthumb -0.985845 43.7284
rfemur -35.3054 2.61869 19.1909
rtibia 67.7655
rfoot -7.78342 9.35166
rtoes -38.8168
lfemur -28.4684 1.61057 -27.1038
ltibia 49.2897
lfoot -10.7938 -11.0559
ltoes -6.57528
